<svg width="147" height="63" viewBox="0 0 147 63" fill="none" xmlns="http://www.w3.org/2000/svg">
<path d="M87.9247 23.8727V27.697H75.7485V27.619C75.8817 27.0467 76.308 25.4857 76.308 23.9248V12.7382C76.308 11.1773 75.8817 9.61627 75.7485 9.04395V8.96599H79.825V9.04395C79.6919 9.61627 79.2389 11.1773 79.2389 12.7382V26.7345H83.1289C85.1005 26.7345 87.1253 24.3671 87.7915 23.8727H87.9247Z" fill="#132438"/>
<path d="M90.6772 27.619C90.8104 27.0467 91.2369 25.4857 91.2369 23.9248V12.7382C91.2369 11.1773 90.8106 9.61627 90.6772 9.04395V8.96599H94.7538V9.04395C94.6206 9.61627 94.1676 11.1773 94.1676 12.7382V23.9248C94.1676 25.4857 94.6206 27.0467 94.7538 27.619V27.697H90.6772V27.619Z" fill="#132438"/>
<path d="M102.111 20.3533L99.2007 12.8424C98.5879 11.2294 97.7087 9.69441 97.3091 9.07018V8.96599H102.025V9.07018C101.839 9.66855 101.812 11.2815 102.398 12.8945L107.247 25.5119L111.51 13.6229C112.203 11.7236 112.016 9.7986 111.75 9.07018V8.96599H114.761V9.04395C114.468 9.53831 113.375 11.6454 112.683 13.5447L107.567 27.697H104.956L102.111 20.3531" fill="#132438"/>
<path d="M130.204 24.5232V27.697H117.228V27.619C117.361 27.0467 117.787 25.4857 117.787 23.9248V12.7382C117.787 11.1773 117.361 9.61627 117.228 9.04395V8.96599H130.124V12.1398H130.017C129.297 11.6454 127.326 9.92848 125.354 9.92848H120.718V17.6289H123.489C125.381 17.6289 127.246 16.9005 127.938 16.6923H128.045V19.4499H127.938C127.246 19.2417 125.381 18.4874 123.489 18.4874H120.718V26.7343H125.434C127.406 26.7343 129.377 25.0174 130.097 24.523H130.203L130.204 24.5232Z" fill="#132438"/>
<path d="M92.2143 44.5441C92.0278 45.1165 91.4683 46.6775 91.4683 48.2123V52.1406C89.7364 52.8951 87.2586 53.8836 84.4344 53.8836C79.532 53.8836 75.3755 49.8772 75.3755 44.2319C75.3755 38.6905 79.5852 34.5803 84.7008 34.5803C86.4592 34.5803 88.8305 35.0744 90.9887 36.0111V39.7313H90.8023C89.9231 38.4564 87.5783 35.6468 84.7275 35.6209C81.2371 35.5948 78.7327 39.1069 78.7327 44.18C78.7327 49.3832 81.4237 52.8173 84.8075 52.8431C86.193 52.8431 87.4718 52.3488 88.5376 51.7244V48.2123C88.5376 46.6775 87.5784 45.1165 87.2853 44.5441V44.4662H92.2145V44.5441H92.2143Z" fill="#132438"/>
<path d="M94.7773 44.1279C94.7773 38.5346 98.7738 34.5803 103.623 34.5803C108.446 34.5803 112.469 38.5346 112.469 44.1279C112.469 49.7213 108.446 53.8836 103.623 53.8836C98.774 53.8836 94.7773 49.7471 94.7773 44.1279ZM109.165 44.1019C109.165 39.8093 107.087 35.5688 103.623 35.5688C100.133 35.5688 98.0812 39.8614 98.0812 44.154C98.0812 48.4985 100.133 52.8952 103.623 52.8952C107.087 52.8952 109.165 48.4724 109.165 44.1019Z" fill="#132438"/>
<path d="M127.48 49.7473V53.5716H115.304V53.4936C115.437 52.9213 115.864 51.3602 115.864 49.7994V38.6127C115.864 37.0519 115.437 35.4908 115.304 34.9185V34.8406H119.381V34.9185C119.248 35.4908 118.795 37.0519 118.795 38.6127V52.6091H122.685C124.656 52.6091 126.681 50.2417 127.347 49.7473H127.48Z" fill="#132438"/>
<path d="M145.795 44.1019C145.795 49.8774 141.586 53.5716 136.763 53.5716H130.076V53.4936C130.209 52.9213 130.635 51.3602 130.635 49.7994V38.6127C130.635 37.0519 130.209 35.4908 130.076 34.9185V34.8406H136.763C141.586 34.8406 145.795 38.5606 145.795 44.1019ZM142.491 44.1019C142.465 39.4712 140.147 35.803 136.044 35.803H133.566V52.6089H136.044C140.147 52.6089 142.518 48.8886 142.491 44.1019Z" fill="#132438"/>
<path d="M67.6242 31.3111C67.6242 14.8546 54.934 1.50234 39.2834 1.24553V1.24002C39.2834 1.24002 36.8592 1.11969 34.4145 1.11969C31.9281 1.11969 29.4202 1.24002 29.4201 1.24002V1.24718C13.796 1.57461 1.20459 14.9376 1.20459 31.3111C1.20459 40.5205 5.19055 48.7762 11.4559 54.2967C20.7305 62.4684 30.8467 61.8629 34.4143 61.8629C37.4025 61.8629 48.6256 62.6625 58.2207 53.5193C63.9954 48.0166 67.6242 40.098 67.6242 31.3111ZM3.55198 31.3111C3.55198 16.8746 14.0928 4.97386 27.5192 3.65331C17.2422 8.24985 10.023 18.9174 10.023 31.3111C10.023 43.7047 17.2422 54.3724 27.5192 58.9688C14.0928 57.6482 3.55198 45.7475 3.55198 31.3111ZM34.4143 57.3988C21.9244 57.3988 15.635 42.5724 24.4655 33.95L28.1737 30.3291L34.4351 35.808L40.6654 30.3414L44.3611 33.95C47.9903 37.4916 49.2182 42.504 48.0464 47.0416C49.3615 45.4006 50.4417 43.569 51.2541 41.5831C50.7929 37.9441 49.1143 34.581 46.4158 31.9439L34.4145 20.2277L29.3372 25.1852L31.5018 27.0797L34.4143 24.2359L39.0033 28.7167L34.4329 32.727L22.0472 21.887L27.6148 15.469H41.0516L46.7729 21.8991L42.9109 25.2887L44.5728 26.9113L50.0572 22.0978L42.1213 13.1768H26.526L18.7814 22.1079L26.0088 28.4346L22.4128 31.9457C16.8473 37.3802 16.805 44.342 18.2724 48.7819C14.5829 44.0068 12.3704 37.9256 12.3704 31.3109C12.3704 17.5702 21.9184 6.12786 34.4162 3.91672C46.9099 6.12969 56.4578 17.5722 56.4578 31.3109C56.4578 36.1406 55.2778 40.6843 53.2066 44.6437C52.0538 46.8475 50.5806 48.7356 50.5911 48.7046C44.5959 56.4524 36.7788 57.3986 34.4141 57.3986L34.4143 57.3988ZM41.3094 58.9688C51.5864 54.3723 58.8055 43.7047 58.8055 31.3111C58.8055 18.9174 51.5864 8.24966 41.3094 3.65331C54.7337 4.97185 65.2766 16.8746 65.2766 31.3111C65.2766 45.7475 54.7337 57.6503 41.3094 58.9688Z" fill="url(#paint0_linear_230_2610)"/>
<defs>
<linearGradient id="paint0_linear_230_2610" x1="6.09907" y1="48.0729" x2="62.0156" y2="13.39" gradientUnits="userSpaceOnUse">
<stop stop-color="#FBCD83"/>
<stop offset="1" stop-color="#EEA449"/>
</linearGradient>
</defs>
</svg>
