 <svg
              width="19"
              height="18"
              viewBox="0 0 19 18"
              fill="none"
              xmlns="http://www.w3.org/2000/svg"
            >
              <path
                fill-rule="evenodd"
                clip-rule="evenodd"
                d="M3.20007 8.99999C3.19977 7.99408 3.44034 7.00271 3.90167 6.10883C4.363 5.21494 5.03167 4.44451 5.85175 3.86199C6.67183 3.27947 7.61947 2.90178 8.61542 2.76053C9.61136 2.61928 10.6267 2.71857 11.5764 3.05009C11.8018 3.12862 12.0492 3.11437 12.2642 3.01049C12.4791 2.9066 12.644 2.72159 12.7225 2.49614C12.801 2.27069 12.7868 2.02328 12.6829 1.80834C12.579 1.59339 12.394 1.42852 12.1686 1.34999C10.5102 0.771417 8.70866 0.747576 7.03554 1.28206C5.36242 1.81654 3.90836 2.88038 2.89253 4.31324C1.8767 5.7461 1.35414 7.47033 1.40361 9.22605C1.45307 10.9818 2.0719 12.6738 3.1668 14.0472C4.2617 15.4206 5.77335 16.4009 7.47391 16.8403C9.17447 17.2798 10.9718 17.1545 12.595 16.4835C14.2182 15.8124 15.5792 14.632 16.4731 13.12C17.3669 11.608 17.7451 9.8465 17.5506 8.10089C17.5376 7.98341 17.5016 7.86964 17.4446 7.76608C17.3876 7.66251 17.3108 7.57119 17.2185 7.49731C17.1263 7.42343 17.0204 7.36845 16.9069 7.3355C16.7933 7.30255 16.6744 7.29229 16.557 7.30529C16.4395 7.31829 16.3257 7.3543 16.2222 7.41127C16.1186 7.46824 16.0273 7.54505 15.9534 7.63731C15.8795 7.72958 15.8245 7.83549 15.7916 7.949C15.7586 8.06252 15.7484 8.18141 15.7614 8.29889C15.8562 9.15019 15.7764 10.0119 15.5268 10.8313C15.2773 11.6507 14.8633 12.4107 14.3102 13.0646C13.757 13.7186 13.0763 14.253 12.3096 14.635C11.5429 15.0169 10.7064 15.2386 9.85115 15.2863C8.99592 15.334 8.13993 15.2069 7.33551 14.9126C6.53108 14.6183 5.79513 14.163 5.17261 13.5747C4.5501 12.9863 4.05411 12.2771 3.71495 11.4906C3.37579 10.704 3.2006 9.85656 3.20007 8.99999ZM16.4751 4.19579C16.6331 4.01677 16.7135 3.78231 16.6987 3.54399C16.6838 3.30566 16.5749 3.083 16.3959 2.92499C16.2168 2.76697 15.9824 2.68654 15.7441 2.7014C15.5057 2.71625 15.2831 2.82517 15.1251 3.00419L9.33357 9.55619L6.46887 7.22249C6.37727 7.14779 6.27186 7.09187 6.15865 7.05791C6.04544 7.02395 5.92665 7.01263 5.80906 7.02458C5.57159 7.04872 5.35342 7.1662 5.20257 7.35119C5.12787 7.44279 5.07195 7.5482 5.03799 7.66141C5.00403 7.77462 4.99271 7.89341 5.00466 8.01099C5.0288 8.24847 5.14628 8.46663 5.33127 8.61749L8.86737 11.4975C9.04752 11.6441 9.27735 11.7153 9.50882 11.6964C9.74028 11.6774 9.95546 11.5697 10.1094 11.3958L16.4751 4.19579Z"
                fill="#27B11A"
              />
            </svg>