 <svg width="28" height="28" viewBox="0 0 28 28" fill="none" xmlns="http://www.w3.org/2000/svg">
  <path d="M8.75 21C9.7165 21 10.5 21.7835 10.5 22.75C10.5 23.7165 9.7165 24.5 8.75 24.5C7.7835 24.5 7 23.7165 7 22.75C7 21.7835 7.7835 21 8.75 21Z" stroke="#1C274C" stroke-width="2"/>
  <path d="M19.25 21.0001C20.2165 21.0001 21 21.7835 21 22.7501C21 23.7166 20.2165 24.5001 19.25 24.5001C18.2835 24.5001 17.5 23.7166 17.5 22.7501C17.5 21.7835 18.2835 21.0001 19.25 21.0001Z" stroke="#1C274C" stroke-width="2"/>
  <path d="M15.1663 15.1667V12.8333M15.1663 12.8333V10.5M15.1663 12.8333H17.4997M15.1663 12.8333H12.833" stroke="#1C274C" stroke-width="2" stroke-linecap="round"/>
  <path d="M2.33301 3.5L2.63775 3.60715C4.15627 4.14103 4.91554 4.40797 5.34982 5.04348C5.7841 5.67899 5.7841 6.52314 5.7841 8.21142V11.3867C5.7841 14.8185 5.85788 15.951 6.86868 17.0172C7.87948 18.0833 9.50634 18.0833 12.7601 18.0833H13.9997M18.9468 18.0833C20.768 18.0833 21.6786 18.0833 22.3222 17.5588C22.9659 17.0343 23.1497 16.1425 23.5173 14.3587L24.1004 11.5299C24.5054 9.50097 24.7078 8.48653 24.1899 7.81326C23.672 7.14 21.9024 7.14 19.9366 7.14H12.8604M5.7841 7.14H8.16634" stroke="#1C274C" stroke-width="2" stroke-linecap="round"/>
  </svg>