<svg width="20" height="20" viewBox="0 0 20 20" fill="none" xmlns="http://www.w3.org/2000/svg">
  <path d="M12.4366 17.7161L20 16.2821C19.9126 17.0712 19.6833 17.8325 19.3122 18.566L11.7662 20C11.844 19.2004 12.0674 18.4391 12.4366 17.7161ZM19.3122 14.2615L11.7662 15.6955V11.3935L9.41125 11.8446V14.2328C9.41125 14.4466 9.34519 14.6413 9.21306 14.8168L7.98601 16.4411C7.65957 16.8618 7.22238 17.1207 6.67444 17.2181L0 18.493C0.0874381 17.7021 0.31672 16.9408 0.687846 16.2091L7.05334 14.9941V12.2826L1.11338 13.4115C1.20082 12.6207 1.42913 11.8646 1.79831 11.1433L7.05334 10.1317V1.77291C7.71787 1.04984 8.50384 0.45887 9.41125 0V9.69364L11.7662 9.23998V2.82622C12.4327 2.10489 13.2129 1.51392 14.1067 1.05332V8.79936L20 7.67304C19.9126 8.4639 19.6833 9.22521 19.3122 9.95697L14.1067 10.9529V13.0908L20 11.9776C19.9126 12.7771 19.6833 13.5384 19.3122 14.2615Z" fill="var(--Brand, #F0A647)"/>
  </svg>