<svg width="44" height="44" viewBox="0 0 44 44" fill="none" xmlns="http://www.w3.org/2000/svg">
<path fill-rule="evenodd" clip-rule="evenodd" d="M40.3327 22C40.3327 32.1251 32.1245 40.3333 21.9993 40.3333C11.8741 40.3333 3.66602 32.1251 3.66602 22C3.66602 11.8748 11.8741 3.66666 21.9993 3.66666C32.1245 3.66666 40.3327 11.8748 40.3327 22ZM29.3882 16.4444C29.9252 16.9813 29.9252 17.852 29.3882 18.3889L20.2216 27.5555C19.6846 28.0925 18.8141 28.0925 18.2771 27.5555L14.6104 23.8889C14.0734 23.3519 14.0734 22.4814 14.6104 21.9444C15.1474 21.4075 16.018 21.4075 16.555 21.9444L19.2493 24.6387L23.3465 20.5416L27.4438 16.4444C27.9808 15.9074 28.8512 15.9074 29.3882 16.4444Z" fill="#C6C6C6"/>
</svg>
