<svg width="162" height="54" viewBox="0 0 162 54" fill="none" xmlns="http://www.w3.org/2000/svg">
<path d="M161.949 39.691C161.949 47.5503 155.514 53.9789 147.658 53.9789H14.2907C6.43135 53.9789 -0.000488281 47.5469 -0.000488281 39.691V14.2878C-0.000488281 6.42848 6.4347 0 14.2907 0H147.658C155.518 0 161.949 6.43182 161.949 14.2878V39.691Z" fill="#4F4F4F"/>
<path d="M51.906 13.9043H49.474L49.026 15.1443H48.258L50.274 9.60029H51.114L53.122 15.1443H52.354L51.906 13.9043ZM51.698 13.3123L50.69 10.4963L49.682 13.3123H51.698ZM55.6326 14.4723L56.9926 10.7603H57.7686L56.0486 15.1443H55.2006L53.4806 10.7603H54.2646L55.6326 14.4723ZM58.213 12.9363C58.213 12.4883 58.3037 12.0963 58.485 11.7603C58.6664 11.419 58.9144 11.155 59.229 10.9683C59.549 10.7816 59.9037 10.6883 60.293 10.6883C60.677 10.6883 61.0104 10.771 61.293 10.9363C61.5757 11.1016 61.7864 11.3096 61.925 11.5603V10.7603H62.661V15.1443H61.925V14.3283C61.781 14.5843 61.565 14.7976 61.277 14.9683C60.9944 15.1336 60.6637 15.2163 60.285 15.2163C59.8957 15.2163 59.5437 15.1203 59.229 14.9283C58.9144 14.7363 58.6664 14.467 58.485 14.1203C58.3037 13.7736 58.213 13.379 58.213 12.9363ZM61.925 12.9443C61.925 12.6136 61.8584 12.3256 61.725 12.0803C61.5917 11.835 61.4104 11.6483 61.181 11.5203C60.957 11.387 60.709 11.3203 60.437 11.3203C60.165 11.3203 59.917 11.3843 59.693 11.5123C59.469 11.6403 59.2904 11.827 59.157 12.0723C59.0237 12.3176 58.957 12.6056 58.957 12.9363C58.957 13.2723 59.0237 13.5656 59.157 13.8163C59.2904 14.0616 59.469 14.251 59.693 14.3843C59.917 14.5123 60.165 14.5763 60.437 14.5763C60.709 14.5763 60.957 14.5123 61.181 14.3843C61.4104 14.251 61.5917 14.0616 61.725 13.8163C61.8584 13.5656 61.925 13.275 61.925 12.9443ZM64.2673 10.0483C64.1286 10.0483 64.0113 10.0003 63.9153 9.90429C63.8193 9.80829 63.7713 9.69095 63.7713 9.55229C63.7713 9.41362 63.8193 9.29629 63.9153 9.20029C64.0113 9.10429 64.1286 9.05629 64.2673 9.05629C64.4006 9.05629 64.5126 9.10429 64.6033 9.20029C64.6993 9.29629 64.7473 9.41362 64.7473 9.55229C64.7473 9.69095 64.6993 9.80829 64.6033 9.90429C64.5126 10.0003 64.4006 10.0483 64.2673 10.0483ZM64.6193 10.7603V15.1443H63.8913V10.7603H64.6193ZM66.588 9.22429V15.1443H65.86V9.22429H66.588ZM67.5568 12.9363C67.5568 12.4883 67.6474 12.0963 67.8288 11.7603C68.0101 11.419 68.2581 11.155 68.5728 10.9683C68.8928 10.7816 69.2474 10.6883 69.6368 10.6883C70.0208 10.6883 70.3541 10.771 70.6368 10.9363C70.9194 11.1016 71.1301 11.3096 71.2688 11.5603V10.7603H72.0048V15.1443H71.2688V14.3283C71.1248 14.5843 70.9088 14.7976 70.6208 14.9683C70.3381 15.1336 70.0074 15.2163 69.6288 15.2163C69.2394 15.2163 68.8874 15.1203 68.5728 14.9283C68.2581 14.7363 68.0101 14.467 67.8288 14.1203C67.6474 13.7736 67.5568 13.379 67.5568 12.9363ZM71.2688 12.9443C71.2688 12.6136 71.2021 12.3256 71.0688 12.0803C70.9354 11.835 70.7541 11.6483 70.5248 11.5203C70.3008 11.387 70.0528 11.3203 69.7808 11.3203C69.5088 11.3203 69.2608 11.3843 69.0368 11.5123C68.8128 11.6403 68.6341 11.827 68.5008 12.0723C68.3674 12.3176 68.3008 12.6056 68.3008 12.9363C68.3008 13.2723 68.3674 13.5656 68.5008 13.8163C68.6341 14.0616 68.8128 14.251 69.0368 14.3843C69.2608 14.5123 69.5088 14.5763 69.7808 14.5763C70.0528 14.5763 70.3008 14.5123 70.5248 14.3843C70.7541 14.251 70.9354 14.0616 71.0688 13.8163C71.2021 13.5656 71.2688 13.275 71.2688 12.9443ZM73.963 11.5763C74.1124 11.315 74.331 11.1016 74.619 10.9363C74.907 10.771 75.235 10.6883 75.603 10.6883C75.9977 10.6883 76.3524 10.7816 76.667 10.9683C76.9817 11.155 77.2297 11.419 77.411 11.7603C77.5924 12.0963 77.683 12.4883 77.683 12.9363C77.683 13.379 77.5924 13.7736 77.411 14.1203C77.2297 14.467 76.979 14.7363 76.659 14.9283C76.3444 15.1203 75.9924 15.2163 75.603 15.2163C75.2244 15.2163 74.891 15.1336 74.603 14.9683C74.3204 14.803 74.107 14.5923 73.963 14.3363V15.1443H73.235V9.22429H73.963V11.5763ZM76.939 12.9363C76.939 12.6056 76.8724 12.3176 76.739 12.0723C76.6057 11.827 76.4244 11.6403 76.195 11.5123C75.971 11.3843 75.723 11.3203 75.451 11.3203C75.1844 11.3203 74.9364 11.387 74.707 11.5203C74.483 11.6483 74.3017 11.8376 74.163 12.0883C74.0297 12.3336 73.963 12.619 73.963 12.9443C73.963 13.275 74.0297 13.5656 74.163 13.8163C74.3017 14.0616 74.483 14.251 74.707 14.3843C74.9364 14.5123 75.1844 14.5763 75.451 14.5763C75.723 14.5763 75.971 14.5123 76.195 14.3843C76.4244 14.251 76.6057 14.0616 76.739 13.8163C76.8724 13.5656 76.939 13.2723 76.939 12.9363ZM79.3693 9.22429V15.1443H78.6413V9.22429H79.3693ZM84.61 12.7843C84.61 12.923 84.602 13.0696 84.586 13.2243H81.082C81.1087 13.6563 81.2554 13.995 81.522 14.2403C81.794 14.4803 82.122 14.6003 82.506 14.6003C82.8207 14.6003 83.082 14.5283 83.29 14.3843C83.5034 14.235 83.6527 14.0376 83.738 13.7923H84.522C84.4047 14.2136 84.17 14.5576 83.818 14.8243C83.466 15.0856 83.0287 15.2163 82.506 15.2163C82.09 15.2163 81.7167 15.123 81.386 14.9363C81.0607 14.7496 80.8047 14.4856 80.618 14.1443C80.4314 13.7976 80.338 13.3976 80.338 12.9443C80.338 12.491 80.4287 12.0936 80.61 11.7523C80.7914 11.411 81.0447 11.1496 81.37 10.9683C81.7007 10.7816 82.0794 10.6883 82.506 10.6883C82.922 10.6883 83.29 10.779 83.61 10.9603C83.93 11.1416 84.1754 11.3923 84.346 11.7123C84.522 12.027 84.61 12.3843 84.61 12.7843ZM83.858 12.6323C83.858 12.355 83.7967 12.1176 83.674 11.9203C83.5514 11.7176 83.3834 11.5656 83.17 11.4643C82.962 11.3576 82.73 11.3043 82.474 11.3043C82.106 11.3043 81.7914 11.4216 81.53 11.6563C81.274 11.891 81.1274 12.2163 81.09 12.6323H83.858ZM89.6158 15.2163C89.2051 15.2163 88.8318 15.123 88.4958 14.9363C88.1651 14.7496 87.9038 14.4856 87.7118 14.1443C87.5251 13.7976 87.4318 13.3976 87.4318 12.9443C87.4318 12.4963 87.5278 12.1016 87.7198 11.7603C87.9171 11.4136 88.1838 11.1496 88.5198 10.9683C88.8558 10.7816 89.2318 10.6883 89.6478 10.6883C90.0638 10.6883 90.4398 10.7816 90.7758 10.9683C91.1118 11.1496 91.3758 11.411 91.5678 11.7523C91.7651 12.0936 91.8638 12.491 91.8638 12.9443C91.8638 13.3976 91.7624 13.7976 91.5598 14.1443C91.3624 14.4856 91.0931 14.7496 90.7518 14.9363C90.4104 15.123 90.0318 15.2163 89.6158 15.2163ZM89.6158 14.5763C89.8771 14.5763 90.1224 14.515 90.3518 14.3923C90.5811 14.2696 90.7651 14.0856 90.9038 13.8403C91.0478 13.595 91.1198 13.2963 91.1198 12.9443C91.1198 12.5923 91.0504 12.2936 90.9118 12.0483C90.7731 11.803 90.5918 11.6216 90.3678 11.5043C90.1438 11.3816 89.9011 11.3203 89.6398 11.3203C89.3731 11.3203 89.1278 11.3816 88.9038 11.5043C88.6851 11.6216 88.5091 11.803 88.3758 12.0483C88.2424 12.2936 88.1758 12.5923 88.1758 12.9443C88.1758 13.3016 88.2398 13.603 88.3678 13.8483C88.5011 14.0936 88.6771 14.2776 88.8958 14.4003C89.1144 14.5176 89.3544 14.5763 89.6158 14.5763ZM94.957 10.6803C95.4903 10.6803 95.9223 10.843 96.253 11.1683C96.5836 11.4883 96.749 11.9523 96.749 12.5603V15.1443H96.029V12.6643C96.029 12.227 95.9196 11.8936 95.701 11.6643C95.4823 11.4296 95.1836 11.3123 94.805 11.3123C94.421 11.3123 94.1143 11.4323 93.885 11.6723C93.661 11.9123 93.549 12.2616 93.549 12.7203V15.1443H92.821V10.7603H93.549V11.3843C93.693 11.1603 93.8876 10.987 94.133 10.8643C94.3836 10.7416 94.6583 10.6803 94.957 10.6803ZM100.959 11.3603V13.9443C100.959 14.1576 101.004 14.3096 101.095 14.4003C101.186 14.4856 101.343 14.5283 101.567 14.5283H102.103V15.1443H101.447C101.042 15.1443 100.738 15.051 100.535 14.8643C100.332 14.6776 100.231 14.371 100.231 13.9443V11.3603H99.663V10.7603H100.231V9.65629H100.959V10.7603H102.103V11.3603H100.959ZM105.161 10.6803C105.492 10.6803 105.79 10.7523 106.057 10.8963C106.324 11.035 106.532 11.2456 106.681 11.5283C106.836 11.811 106.913 12.155 106.913 12.5603V15.1443H106.193V12.6643C106.193 12.227 106.084 11.8936 105.865 11.6643C105.646 11.4296 105.348 11.3123 104.969 11.3123C104.585 11.3123 104.278 11.4323 104.049 11.6723C103.825 11.9123 103.713 12.2616 103.713 12.7203V15.1443H102.985V9.22429H103.713V11.3843C103.857 11.1603 104.054 10.987 104.305 10.8643C104.561 10.7416 104.846 10.6803 105.161 10.6803ZM112.102 12.7843C112.102 12.923 112.094 13.0696 112.078 13.2243H108.574C108.601 13.6563 108.748 13.995 109.014 14.2403C109.286 14.4803 109.614 14.6003 109.998 14.6003C110.313 14.6003 110.574 14.5283 110.782 14.3843C110.996 14.235 111.145 14.0376 111.23 13.7923H112.014C111.897 14.2136 111.662 14.5576 111.31 14.8243C110.958 15.0856 110.521 15.2163 109.998 15.2163C109.582 15.2163 109.209 15.123 108.878 14.9363C108.553 14.7496 108.297 14.4856 108.11 14.1443C107.924 13.7976 107.83 13.3976 107.83 12.9443C107.83 12.491 107.921 12.0936 108.102 11.7523C108.284 11.411 108.537 11.1496 108.862 10.9683C109.193 10.7816 109.572 10.6883 109.998 10.6883C110.414 10.6883 110.782 10.779 111.102 10.9603C111.422 11.1416 111.668 11.3923 111.838 11.7123C112.014 12.027 112.102 12.3843 112.102 12.7843ZM111.35 12.6323C111.35 12.355 111.289 12.1176 111.166 11.9203C111.044 11.7176 110.876 11.5656 110.662 11.4643C110.454 11.3576 110.222 11.3043 109.966 11.3043C109.598 11.3043 109.284 11.4216 109.022 11.6563C108.766 11.891 108.62 12.2163 108.582 12.6323H111.35Z" fill="white"/>
<path d="M57.164 34.2583H51.996L51.044 36.8933H49.412L53.696 25.1123H55.481L59.748 36.8933H58.116L57.164 34.2583ZM56.722 33.0003L54.58 27.0163L52.438 33.0003H56.722ZM63.162 29.2943C63.468 28.7616 63.9214 28.3196 64.522 27.9683C65.134 27.6056 65.8424 27.4243 66.647 27.4243C67.4744 27.4243 68.2224 27.6226 68.891 28.0193C69.571 28.416 70.1037 28.977 70.489 29.7023C70.8744 30.4163 71.067 31.2493 71.067 32.2013C71.067 33.142 70.8744 33.9806 70.489 34.7173C70.1037 35.454 69.571 36.0263 68.891 36.4343C68.2224 36.8423 67.4744 37.0463 66.647 37.0463C65.8537 37.0463 65.151 36.8706 64.539 36.5193C63.9384 36.1566 63.4794 35.709 63.162 35.1763V41.3133H61.615V27.5773H63.162V29.2943ZM69.486 32.2013C69.486 31.4986 69.3444 30.8866 69.061 30.3653C68.7777 29.844 68.3924 29.4473 67.905 29.1753C67.429 28.9033 66.902 28.7673 66.324 28.7673C65.7574 28.7673 65.2304 28.909 64.743 29.1923C64.267 29.4643 63.8817 29.8666 63.587 30.3993C63.3037 30.9206 63.162 31.527 63.162 32.2183C63.162 32.921 63.3037 33.5386 63.587 34.0713C63.8817 34.5926 64.267 34.995 64.743 35.2783C65.2304 35.5503 65.7574 35.6863 66.324 35.6863C66.902 35.6863 67.429 35.5503 67.905 35.2783C68.3924 34.995 68.7777 34.5926 69.061 34.0713C69.3444 33.5386 69.486 32.9153 69.486 32.2013ZM74.6503 29.2943C74.9563 28.7616 75.4096 28.3196 76.0103 27.9683C76.6223 27.6056 77.3306 27.4243 78.1353 27.4243C78.9626 27.4243 79.7106 27.6226 80.3793 28.0193C81.0593 28.416 81.592 28.977 81.9773 29.7023C82.3626 30.4163 82.5553 31.2493 82.5553 32.2013C82.5553 33.142 82.3626 33.9806 81.9773 34.7173C81.592 35.454 81.0593 36.0263 80.3793 36.4343C79.7106 36.8423 78.9626 37.0463 78.1353 37.0463C77.342 37.0463 76.6393 36.8706 76.0273 36.5193C75.4266 36.1566 74.9676 35.709 74.6503 35.1763V41.3133H73.1033V27.5773H74.6503V29.2943ZM80.9743 32.2013C80.9743 31.4986 80.8326 30.8866 80.5493 30.3653C80.266 29.844 79.8806 29.4473 79.3933 29.1753C78.9173 28.9033 78.3903 28.7673 77.8123 28.7673C77.2456 28.7673 76.7186 28.909 76.2313 29.1923C75.7553 29.4643 75.37 29.8666 75.0753 30.3993C74.792 30.9206 74.6503 31.527 74.6503 32.2183C74.6503 32.921 74.792 33.5386 75.0753 34.0713C75.37 34.5926 75.7553 34.995 76.2313 35.2783C76.7186 35.5503 77.2456 35.6863 77.8123 35.6863C78.3903 35.6863 78.9173 35.5503 79.3933 35.2783C79.8806 34.995 80.266 34.5926 80.5493 34.0713C80.8326 33.5386 80.9743 32.9153 80.9743 32.2013ZM92.8808 37.0123C92.0988 37.0123 91.3962 36.8763 90.7728 36.6043C90.1608 36.321 89.6792 35.9356 89.3278 35.4483C88.9765 34.9496 88.7952 34.3773 88.7838 33.7313H90.4328C90.4895 34.2866 90.7162 34.757 91.1128 35.1423C91.5208 35.5163 92.1102 35.7033 92.8808 35.7033C93.6175 35.7033 94.1955 35.522 94.6148 35.1593C95.0455 34.7853 95.2608 34.3093 95.2608 33.7313C95.2608 33.278 95.1362 32.9096 94.8868 32.6263C94.6375 32.343 94.3258 32.1276 93.9518 31.9803C93.5778 31.833 93.0735 31.6743 92.4388 31.5043C91.6568 31.3003 91.0278 31.0963 90.5518 30.8923C90.0872 30.6883 89.6848 30.371 89.3448 29.9403C89.0162 29.4983 88.8518 28.909 88.8518 28.1723C88.8518 27.5263 89.0162 26.954 89.3448 26.4553C89.6735 25.9566 90.1325 25.5713 90.7218 25.2993C91.3225 25.0273 92.0082 24.8913 92.7788 24.8913C93.8895 24.8913 94.7962 25.169 95.4988 25.7243C96.2128 26.2796 96.6152 27.0163 96.7058 27.9343H95.0058C94.9492 27.481 94.7112 27.0843 94.2918 26.7443C93.8725 26.393 93.3172 26.2173 92.6258 26.2173C91.9798 26.2173 91.4528 26.3873 91.0448 26.7273C90.6368 27.056 90.4328 27.5206 90.4328 28.1213C90.4328 28.552 90.5518 28.9033 90.7898 29.1753C91.0392 29.4473 91.3395 29.657 91.6908 29.8043C92.0535 29.9403 92.5578 30.099 93.2038 30.2803C93.9858 30.4956 94.6148 30.711 95.0908 30.9263C95.5668 31.1303 95.9748 31.4533 96.3148 31.8953C96.6548 32.326 96.8248 32.9153 96.8248 33.6633C96.8248 34.2413 96.6718 34.7853 96.3658 35.2953C96.0598 35.8053 95.6065 36.219 95.0058 36.5363C94.4052 36.8536 93.6968 37.0123 92.8808 37.0123ZM100.988 28.8523V34.3433C100.988 34.7966 101.085 35.1196 101.277 35.3123C101.47 35.4936 101.804 35.5843 102.28 35.5843H103.419V36.8933H102.025C101.164 36.8933 100.518 36.695 100.087 36.2983C99.6567 35.9016 99.4414 35.25 99.4414 34.3433V28.8523H98.2344V27.5773H99.4414V25.2313H100.988V27.5773H103.419V28.8523H100.988ZM109.357 37.0463C108.484 37.0463 107.691 36.848 106.977 36.4513C106.274 36.0546 105.719 35.4936 105.311 34.7683C104.914 34.0316 104.716 33.1816 104.716 32.2183C104.716 31.2663 104.92 30.4276 105.328 29.7023C105.747 28.9656 106.314 28.4046 107.028 28.0193C107.742 27.6226 108.541 27.4243 109.425 27.4243C110.309 27.4243 111.108 27.6226 111.822 28.0193C112.536 28.4046 113.097 28.96 113.505 29.6853C113.924 30.4106 114.134 31.255 114.134 32.2183C114.134 33.1816 113.918 34.0316 113.488 34.7683C113.068 35.4936 112.496 36.0546 111.771 36.4513C111.045 36.848 110.241 37.0463 109.357 37.0463ZM109.357 35.6863C109.912 35.6863 110.433 35.556 110.921 35.2953C111.408 35.0346 111.799 34.6436 112.094 34.1223C112.4 33.601 112.553 32.9663 112.553 32.2183C112.553 31.4703 112.405 30.8356 112.111 30.3143C111.816 29.793 111.431 29.4076 110.955 29.1583C110.479 28.8976 109.963 28.7673 109.408 28.7673C108.841 28.7673 108.32 28.8976 107.844 29.1583C107.379 29.4076 107.005 29.793 106.722 30.3143C106.438 30.8356 106.297 31.4703 106.297 32.2183C106.297 32.9776 106.433 33.618 106.705 34.1393C106.988 34.6606 107.362 35.0516 107.827 35.3123C108.291 35.5616 108.801 35.6863 109.357 35.6863ZM117.715 29.0903C117.987 28.5576 118.372 28.144 118.871 27.8493C119.381 27.5546 119.998 27.4073 120.724 27.4073V29.0053H120.316C118.582 29.0053 117.715 29.946 117.715 31.8273V36.8933H116.168V27.5773H117.715V29.0903ZM131.01 31.8783C131.01 32.173 130.993 32.4846 130.959 32.8133H123.513C123.569 33.7313 123.881 34.451 124.448 34.9723C125.026 35.4823 125.723 35.7373 126.539 35.7373C127.207 35.7373 127.763 35.5843 128.205 35.2783C128.658 34.961 128.975 34.5416 129.157 34.0203H130.823C130.573 34.9156 130.075 35.6466 129.327 36.2133C128.579 36.7686 127.649 37.0463 126.539 37.0463C125.655 37.0463 124.861 36.848 124.159 36.4513C123.467 36.0546 122.923 35.4936 122.527 34.7683C122.13 34.0316 121.932 33.1816 121.932 32.2183C121.932 31.255 122.124 30.4106 122.51 29.6853C122.895 28.96 123.433 28.4046 124.125 28.0193C124.827 27.6226 125.632 27.4243 126.539 27.4243C127.423 27.4243 128.205 27.617 128.885 28.0023C129.565 28.3876 130.086 28.9203 130.449 29.6003C130.823 30.269 131.01 31.0283 131.01 31.8783ZM129.412 31.5553C129.412 30.966 129.281 30.4616 129.021 30.0423C128.76 29.6116 128.403 29.2886 127.95 29.0733C127.508 28.8466 127.015 28.7333 126.471 28.7333C125.689 28.7333 125.02 28.9826 124.465 29.4813C123.921 29.98 123.609 30.6713 123.53 31.5553H129.412Z" fill="white"/>
<path d="M36.737 32.2586C36.0143 33.8616 35.666 34.5773 34.735 35.9948C33.4365 37.9723 31.6025 40.4363 29.3328 40.4573C27.3168 40.4748 26.7988 39.1448 24.06 39.1606C21.323 39.1746 20.7525 40.4818 18.7348 40.4626C16.465 40.4416 14.7273 38.2173 13.427 36.2381C9.7923 30.7081 9.41255 24.2156 11.6543 20.7628C13.2468 18.3111 15.7615 16.8761 18.124 16.8761C20.5303 16.8761 22.044 18.1956 24.032 18.1956C25.9623 18.1956 27.1383 16.8726 29.9208 16.8726C32.0208 16.8726 34.2503 18.0188 35.8375 19.9963C30.6365 22.8471 31.48 30.2741 36.737 32.2586ZM27.8103 14.6641C28.82 13.3656 29.5883 11.5351 29.31 9.6626C27.658 9.77635 25.7278 10.8263 24.599 12.1966C23.577 13.4391 22.7318 15.2818 23.059 17.0738C24.8615 17.1281 26.727 16.0518 27.8103 14.6641Z" fill="white"/>
</svg>
