<svg width="1150" height="298" viewBox="0 0 1150 298" fill="none" xmlns="http://www.w3.org/2000/svg">
<rect width="1150" height="298" rx="28" fill="url(#paint0_linear_157_1620)"/>
<rect x="230" width="920" height="298" rx="28" fill="url(#paint1_linear_157_1620)"/>
<path d="M567 0H28C12.536 0 0 12.536 0 28V270C0 285.464 12.536 298 28 298H567V0Z" fill="url(#paint2_linear_157_1620)"/>
<g opacity="0.3">
<path d="M0 161.253C0 161.5 0.101706 161.737 0.281229 161.907L134.73 289.142C135.077 289.47 135.537 289.653 136.015 289.653V289.653C137.714 289.653 138.531 287.569 137.285 286.414L1.51091 160.594C0.935141 160.06 0 160.468 0 161.253V161.253Z" fill="white"/>
<path d="M0 249.548L46.2598 294.999H52.0105L0 244.96V249.548Z" fill="white"/>
<path d="M98.1766 290.71C99.0989 291.6 100.338 291.829 100.944 291.226C101.553 290.627 101.3 289.418 100.381 288.532L0 191.702V194.502L98.1586 290.693C98.1622 290.696 98.1729 290.706 98.1766 290.71Z" fill="white"/>
<path d="M0 183.218C0 183.479 0.105072 183.73 0.291606 183.913L112.828 294.482C113.165 294.814 113.619 295 114.092 295V295C115.716 295 116.513 293.021 115.343 291.895L1.65059 182.515C1.03129 181.919 0 182.358 0 183.218V183.218Z" fill="white"/>
<path d="M0 172.233C0 172.377 0.0574884 172.515 0.159636 172.615L121.551 292.577C121.735 292.759 121.984 292.861 122.243 292.861V292.861C123.127 292.861 123.564 291.789 122.932 291.171L0.913004 171.849C0.572812 171.516 0 171.757 0 172.233V172.233Z" fill="white"/>
<path d="M241.281 181.913C242.202 182.801 243.443 183.031 244.049 182.429C244.661 181.826 244.408 180.617 243.489 179.731L211.112 148.5L243.49 117.269C244.408 116.382 244.661 115.174 244.049 114.571C243.443 113.969 242.202 114.199 241.281 115.087C241.278 115.091 241.267 115.101 241.263 115.104L207.185 148.5L241.263 181.895C241.267 181.899 241.278 181.909 241.281 181.913Z" fill="white"/>
<path d="M0 271.282L24.1391 294.999H28.4197L0 267.656V271.282Z" fill="white"/>
<path d="M0 293.686L1.33718 294.999H6.67757L0 288.575V293.686Z" fill="white"/>
<path d="M0 281.875L13.3924 294.999H16.881L0 278.716V281.875Z" fill="white"/>
<path d="M106.076 255.07C106.992 255.96 108.235 256.192 108.84 255.589C109.451 254.985 109.2 253.778 108.276 252.893L0.0567724 148.5L108.276 44.1064C109.2 43.2217 109.451 42.0148 108.84 41.4106C108.235 40.8079 106.992 41.04 106.076 41.9301C106.073 41.9334 106.06 41.9457 106.057 41.949L0 145.879V148.5V151.121L106.057 255.051C106.06 255.054 106.073 255.067 106.076 255.07Z" fill="white"/>
<path d="M0 237.653L58.5213 295H62.0057L0 235.187V237.653Z" fill="white"/>
<path d="M0 227.422L68.7795 295H74.0379L0 223.768V227.422Z" fill="white"/>
<path d="M64.0783 278.495C64.6892 279.088 65.5173 279.243 65.9251 278.843C66.3276 278.444 66.1638 277.641 65.551 277.045L0 213.647V215.866L64.0694 278.486L64.0783 278.495Z" fill="white"/>
<path d="M0 205.65L90.9379 294.999H96.4303L0 202.224V205.65Z" fill="white"/>
<path d="M0 261.132L34.3802 295H40.478L0 256.158V261.132Z" fill="white"/>
<path d="M164.485 268.543C165.406 269.432 166.644 269.665 167.249 269.063C167.862 268.46 167.609 267.252 166.69 266.365L44.5018 148.499L166.69 30.6335C167.608 29.7469 167.861 28.5383 167.249 27.9357C166.643 27.3331 165.406 27.5671 164.485 28.4551C164.481 28.4586 164.471 28.4692 164.467 28.4725L41.9845 148.499L164.467 268.526C164.471 268.529 164.481 268.54 164.485 268.543Z" fill="white"/>
<path d="M122.774 233.779L34.1342 148.499L122.774 63.2194C124.003 62.0386 124.345 60.4317 123.533 59.6214C122.722 58.8162 121.073 59.1246 119.844 60.3054C119.837 60.3123 119.818 60.3315 119.811 60.3384L30.0815 148.499L119.811 236.661C119.818 236.667 119.837 236.687 119.844 236.693C121.073 237.874 122.722 238.183 123.533 237.378C124.345 236.567 124.003 234.96 122.774 233.779Z" fill="white"/>
<path d="M13.9902 151.382C12.3545 149.809 12.3545 147.191 13.9902 145.617L159.864 5.2721C161.098 4.08515 160.258 2 158.546 2V2C158.047 2 157.569 2.19578 157.213 2.54519L11.5669 145.646C9.97144 147.214 9.97144 149.785 11.5669 151.353L157.213 294.454C157.569 294.804 158.047 295 158.546 295V295C160.258 295 161.098 292.914 159.864 291.727L13.9902 151.382Z" fill="white"/>
<path d="M222.011 212.58L155.755 148.5L222.01 84.4196C222.62 83.8274 222.787 83.0205 222.383 82.6241C221.975 82.2241 221.148 82.3765 220.536 82.9721L220.529 82.9789L153.492 148.5L220.529 214.021L220.536 214.027C221.149 214.623 221.975 214.775 222.383 214.375C222.787 213.979 222.62 213.172 222.011 212.58Z" fill="white"/>
<path d="M245.023 228.45C246.255 229.628 247.904 229.936 248.713 229.129C249.523 228.324 249.181 226.717 247.954 225.531L167.888 148.5L247.954 71.4684C249.181 70.2824 249.523 68.6755 248.713 67.8704C247.904 67.0637 246.255 67.3717 245.023 68.5493C245.016 68.5562 244.996 68.5752 244.987 68.5839L163.652 148.5L244.987 228.416C244.996 228.424 245.016 228.443 245.023 228.45Z" fill="white"/>
<path d="M154.655 190.414L111.318 148.5L154.655 106.586C155.271 105.993 155.435 105.19 155.029 104.788C154.621 104.388 153.796 104.546 153.182 105.136L153.173 105.145L108.815 148.5L153.173 191.854L153.182 191.863C153.796 192.454 154.621 192.611 155.029 192.211C155.435 191.81 155.271 191.006 154.655 190.414Z" fill="white"/>
<path d="M135.479 2L0 135.111V137.656L140.997 2H135.479Z" fill="white"/>
<path d="M46.2598 2L0 47.4514V52.0391L52.0105 2H46.2598Z" fill="white"/>
<path d="M100.944 5.77362C100.338 5.17119 99.0988 5.39971 98.1765 6.28973C98.1728 6.29321 98.1622 6.30346 98.1586 6.30704L0 102.497V105.298L100.381 8.46785C101.3 7.58131 101.553 6.37287 100.944 5.77362Z" fill="white"/>
<path d="M113.354 2L0 113.373V116.072L118.569 2H113.354Z" fill="white"/>
<path d="M125.635 2L0 124.793V126.324L128.545 2H125.635Z" fill="white"/>
<path d="M251.664 125.216L228.028 148.499L251.664 171.783C251.677 171.795 251.703 171.821 251.717 171.835C253.253 173.314 255.315 173.691 256.326 172.68C257.333 171.671 256.907 169.657 255.368 168.182L234.857 148.499L255.368 128.817C256.907 127.342 257.333 125.328 256.326 124.319C255.315 123.307 253.253 123.685 251.717 125.164C251.703 125.177 251.677 125.204 251.664 125.216Z" fill="white"/>
<path d="M269.324 97.9333L217.859 148.499L269.324 199.066C269.33 199.071 269.351 199.092 269.358 199.098C270.587 200.279 272.24 200.584 273.046 199.782C273.857 198.977 273.515 197.364 272.288 196.184L222.724 148.499L272.288 100.814C273.515 99.6351 273.857 98.0215 273.047 97.2163C272.24 96.4146 270.587 96.7194 269.358 97.9002C269.351 97.9072 269.33 97.928 269.324 97.9333Z" fill="white"/>
<path d="M24.1391 2L0 25.7173V29.3425L28.4197 2H24.1391Z" fill="white"/>
<path d="M1.33718 2L0 3.31381V8.42445L6.67757 2H1.33718Z" fill="white"/>
<path d="M13.3924 2L0 15.1239V18.2834L16.881 2H13.3924Z" fill="white"/>
<path d="M58.5213 2L0 59.3465V61.8123L62.0057 2H58.5213Z" fill="white"/>
<path d="M68.7795 2L0 69.5776V73.2316L74.0379 2H68.7795Z" fill="white"/>
<path d="M65.9252 18.1568C65.5174 17.7568 64.6893 17.9109 64.0784 18.5049L64.0695 18.5136L0 81.1336V83.3527L65.551 19.9541C66.1638 19.3584 66.3276 18.5549 65.9252 18.1568Z" fill="white"/>
<path d="M90.9379 2L0 91.3489V94.7753L96.4303 2H90.9379Z" fill="white"/>
<path d="M34.3802 2L0 35.8684V40.8417L40.478 2H34.3802Z" fill="white"/>
<path d="M268.572 67.3163L185.945 148.5L268.572 229.683C268.581 229.692 268.601 229.711 268.608 229.718C269.833 230.902 271.486 231.207 272.295 230.4C273.105 229.595 272.767 227.985 271.536 226.802L190.149 148.5L271.536 70.1974C272.766 69.015 273.105 67.4046 272.294 66.5995C271.486 65.7926 269.833 66.0974 268.608 67.2816C268.601 67.2885 268.581 67.3077 268.572 67.3163Z" fill="white"/>
<path d="M192.524 11.2988L52.883 148.5L192.524 285.701C192.53 285.706 192.551 285.727 192.558 285.734C193.787 286.914 195.44 287.219 196.25 286.414C197.06 285.609 196.718 283.995 195.491 282.816L55.8795 148.5L195.491 14.1835C196.718 13.0043 197.06 11.3905 196.25 10.5853C195.44 9.78029 193.787 10.085 192.558 11.2659C192.551 11.2727 192.53 11.2934 192.524 11.2988Z" fill="white"/>
<path d="M179.526 37.6848C178.518 36.6768 176.455 37.0543 174.917 38.5297C174.903 38.5435 174.876 38.5696 174.864 38.5816L63.2834 148.5L174.864 258.419C174.876 258.431 174.903 258.457 174.917 258.471C176.455 259.946 178.518 260.323 179.526 259.315C180.532 258.306 180.106 256.292 178.568 254.817L67.7712 148.5L178.568 42.1829C180.106 40.7077 180.532 38.694 179.526 37.6848Z" fill="white"/>
<path d="M74.4318 148.5L145.127 217.962C145.134 217.969 145.154 217.988 145.163 217.996C146.393 219.172 148.042 219.48 148.852 218.675C149.661 217.868 149.319 216.262 148.094 215.077L78.8941 148.5L148.094 81.9233C149.319 80.7389 149.661 79.1322 148.852 78.3253C148.042 77.5202 146.393 77.8283 145.162 79.004C145.153 79.0127 145.134 79.0317 145.127 79.0386L74.4318 148.5Z" fill="white"/>
<path d="M208.864 28.622L86.5328 148.5L208.864 268.378C208.867 268.381 208.881 268.395 208.883 268.397C209.804 269.285 211.045 269.515 211.652 268.915C212.262 268.309 212.005 267.104 211.09 266.214L89.0563 148.5L211.09 30.7863C212.005 29.8964 212.262 28.6913 211.652 28.0853C211.045 27.4846 209.804 27.7149 208.883 28.603C208.881 28.6048 208.867 28.6186 208.864 28.622Z" fill="white"/>
<path d="M244.66 104.284C244.253 103.884 243.426 104.037 242.814 104.632L242.806 104.639L197.93 148.5L242.807 192.36L242.814 192.367C243.426 192.962 244.253 193.115 244.66 192.715C245.065 192.318 244.897 191.512 244.285 190.923L200.421 148.5L244.285 106.076C244.897 105.488 245.064 104.681 244.66 104.284Z" fill="white"/>
<path d="M155.55 17.6459C155.142 17.2458 154.319 17.4018 153.703 17.9939L153.696 18.0009L20.1806 148.499L153.696 278.998L153.703 279.005C154.319 279.597 155.142 279.753 155.55 279.353C155.958 278.953 155.79 278.146 155.178 277.557L21.7416 148.499L155.178 19.4414C155.79 18.8526 155.958 18.0459 155.55 17.6459Z" fill="white"/>
<path d="M194.557 55.5462C193.748 54.7391 192.099 55.0474 190.87 56.2283C190.863 56.2351 190.842 56.2559 190.835 56.2629L96.9574 148.5L190.835 240.737C190.842 240.744 190.863 240.765 190.87 240.771C192.099 241.952 193.748 242.261 194.557 241.453C195.365 240.647 195.027 239.036 193.798 237.856L100.922 148.5L193.798 59.1439C195.027 57.9631 195.365 56.3529 194.557 55.5462Z" fill="white"/>
<path d="M237.721 53.9911L141.534 148.5L237.721 243.008C237.73 243.017 237.749 243.036 237.757 243.043C238.985 244.224 240.638 244.529 241.443 243.725C242.253 242.92 241.915 241.31 240.684 240.127L145.449 148.5L240.684 56.8723C241.915 55.6896 242.253 54.0794 241.443 53.2743C240.638 52.4708 238.985 52.7757 237.756 53.9565C237.749 53.9634 237.73 53.9826 237.721 53.9911Z" fill="white"/>
<path d="M174.833 148.5L195.16 168.419C195.163 168.423 195.176 168.435 195.179 168.438C196.098 169.325 197.338 169.56 197.947 168.954C198.554 168.354 198.303 167.147 197.382 166.259L178.972 148.5L197.382 130.741C198.303 129.853 198.554 128.646 197.947 128.045C197.338 127.439 196.098 127.675 195.179 128.561C195.176 128.565 195.163 128.577 195.16 128.58L174.833 148.5Z" fill="white"/>
<path d="M130.571 148.5L187.266 204.058C187.269 204.062 187.28 204.072 187.284 204.076C188.203 204.969 189.442 205.198 190.048 204.595C190.66 203.992 190.407 202.784 189.488 201.897L134.133 148.5L189.488 95.103C190.407 94.2164 190.66 93.0081 190.048 92.4054C189.442 91.8028 188.202 92.0313 187.284 92.9247C187.28 92.9283 187.269 92.9385 187.266 92.9421L130.571 148.5Z" fill="white"/>
<path d="M205.698 66.378C204.889 65.5711 203.236 65.8759 202.008 67.0567C202.001 67.0636 201.979 67.0843 201.972 67.0913L119.116 148.5L201.972 229.909C201.979 229.915 202.001 229.936 202.008 229.943C203.236 231.124 204.889 231.429 205.698 230.622C206.503 229.818 206.164 228.208 204.935 227.027L123.314 148.5L204.936 69.9724C206.164 68.7916 206.503 67.1814 205.698 66.378Z" fill="white"/>
</g>
<g opacity="0.2">
<path d="M1150 162.616L996.433 297.999H990.178L1150 160.028V162.616Z" fill="white"/>
<path d="M1150 251.773L1097.56 298H1091.05L1150 247.107V251.773Z" fill="white"/>
<path d="M1038.72 293.637C1037.67 294.542 1036.27 294.775 1035.58 294.162C1034.89 293.552 1035.17 292.323 1036.22 291.422L1150 192.939V195.787L1038.74 293.619C1038.73 293.623 1038.72 293.633 1038.72 293.637Z" fill="white"/>
<path d="M1150 184.726L1021.51 297.999H1015.6L1150 181.98V184.726Z" fill="white"/>
<path d="M1150 173.112L1007.59 298H1004.29L1150 171.554V173.112Z" fill="white"/>
<path d="M876.505 182.983C875.461 183.886 874.054 184.12 873.368 183.508C872.674 182.895 872.96 181.665 874.002 180.764L910.702 149L874.002 117.236C872.96 116.334 872.673 115.105 873.368 114.492C874.054 113.879 875.461 114.114 876.505 115.017C876.509 115.02 876.521 115.031 876.525 115.035L915.154 149L876.525 182.965C876.521 182.969 876.509 182.979 876.505 182.983Z" fill="white"/>
<path d="M1150 273.878L1122.64 297.999H1117.79L1150 270.19V273.878Z" fill="white"/>
<path d="M1150 296.663L1148.48 297.999H1142.43L1150 291.465V296.663Z" fill="white"/>
<path d="M1150 284.652L1134.82 298H1130.87L1150 281.438V284.652Z" fill="white"/>
<path d="M1029.76 257.388C1028.72 258.294 1027.31 258.53 1026.63 257.917C1025.94 257.302 1026.22 256.075 1027.27 255.175L1149.94 149L1027.27 42.8249C1026.22 41.9251 1025.94 40.6976 1026.63 40.083C1027.31 39.4701 1028.72 39.7062 1029.76 40.6114C1029.77 40.6148 1029.78 40.6273 1029.78 40.6307L1150 146.334V149V151.666L1029.78 257.369C1029.78 257.373 1029.77 257.385 1029.76 257.388Z" fill="white"/>
<path d="M1150 239.675L1083.67 298H1079.72L1150 237.167V239.675Z" fill="white"/>
<path d="M1150 229.269L1072.04 298H1066.08L1150 225.552V229.269Z" fill="white"/>
<path d="M1077.37 281.213C1076.67 281.817 1075.74 281.973 1075.27 281.566C1074.82 281.162 1075 280.344 1075.7 279.738L1150 215.258V217.515L1077.38 281.204L1077.37 281.213Z" fill="white"/>
<path d="M1150 207.126L1046.92 298H1040.69L1150 203.641V207.126Z" fill="white"/>
<path d="M1150 263.554L1111.03 298H1104.12L1150 258.496V263.554Z" fill="white"/>
<path d="M963.554 271.092C962.51 271.995 961.107 272.233 960.421 271.621C959.727 271.008 960.014 269.778 961.055 268.877L1099.56 148.999L961.055 29.1222C960.014 28.2205 959.727 26.9913 960.421 26.3784C961.108 25.7656 962.51 26.0035 963.554 26.9067C963.558 26.9103 963.571 26.921 963.574 26.9243L1102.41 148.999L963.574 271.074C963.57 271.078 963.558 271.089 963.554 271.092Z" fill="white"/>
<path d="M1010.83 235.735L1111.31 148.999L1010.83 62.2641C1009.44 61.0631 1009.05 59.4288 1009.97 58.6046C1010.89 57.7857 1012.76 58.0993 1014.15 59.3003C1014.16 59.3074 1014.19 59.3268 1014.19 59.3339L1115.9 148.999L1014.19 238.665C1014.19 238.672 1014.16 238.692 1014.15 238.698C1012.76 239.899 1010.89 240.213 1009.97 239.394C1009.05 238.57 1009.44 236.936 1010.83 235.735Z" fill="white"/>
<path d="M1137.54 149L964.936 0H971.168L1140.18 149L971.168 298H964.936L1137.54 149Z" fill="white"/>
<path d="M898.349 214.173L973.451 149L898.349 83.8259C897.658 83.2236 897.469 82.4029 897.927 81.9997C898.389 81.5929 899.326 81.7479 900.02 82.3536L900.028 82.3606L976.016 149L900.028 215.638L900.02 215.645C899.326 216.251 898.389 216.406 897.927 215.999C897.469 215.596 897.658 214.776 898.349 214.173Z" fill="white"/>
<path d="M872.264 230.315C870.867 231.513 868.998 231.826 868.081 231.005C867.163 230.187 867.55 228.552 868.941 227.346L959.697 149L868.941 70.6541C867.55 69.448 867.163 67.8137 868.081 66.9948C868.998 66.1743 870.867 66.4875 872.264 67.6853C872.272 67.6923 872.294 67.7116 872.304 67.7204L964.499 149L872.304 230.28C872.294 230.289 872.272 230.308 872.264 230.315Z" fill="white"/>
<path d="M974.697 191.629L1023.82 149L974.697 106.371C973.999 105.768 973.813 104.951 974.273 104.543C974.735 104.136 975.67 104.296 976.366 104.896L976.377 104.905L1026.66 149L976.377 193.094L976.366 193.103C975.67 193.704 974.735 193.864 974.273 193.457C973.813 193.049 973.999 192.232 974.697 191.629Z" fill="white"/>
<path d="M996.433 0L1150 135.383V137.971L990.178 0H996.433Z" fill="white"/>
<path d="M1097.56 0L1150 46.2271V50.893L1091.05 0H1097.56Z" fill="white"/>
<path d="M1035.58 3.83795C1036.27 3.22524 1037.67 3.45766 1038.72 4.36287C1038.72 4.36641 1038.73 4.37683 1038.74 4.38047L1150 102.212V105.061L1036.22 6.57816C1035.17 5.67649 1034.89 4.44742 1035.58 3.83795Z" fill="white"/>
<path d="M1021.51 0L1150 113.274V116.019L1015.6 0H1021.51Z" fill="white"/>
<path d="M1007.59 0L1150 124.888V126.445L1004.29 0H1007.59Z" fill="white"/>
<path d="M864.736 125.319L891.527 149L864.736 172.681C864.722 172.693 864.692 172.719 864.675 172.734C862.935 174.238 860.598 174.621 859.451 173.593C858.311 172.566 858.793 170.518 860.537 169.018L883.787 149L860.537 128.981C858.793 127.481 858.311 125.433 859.451 124.406C860.598 123.378 862.935 123.762 864.675 125.266C864.691 125.28 864.722 125.306 864.736 125.319Z" fill="white"/>
<path d="M844.718 97.5708L903.054 149L844.718 200.429C844.711 200.434 844.687 200.455 844.679 200.462C843.286 201.663 841.413 201.973 840.499 201.158C839.58 200.339 839.968 198.698 841.359 197.499L897.54 149L841.359 100.501C839.968 99.3017 839.58 97.6606 840.499 96.8416C841.413 96.0263 843.286 96.3363 844.679 97.5372C844.687 97.5443 844.711 97.5654 844.718 97.5708Z" fill="white"/>
<path d="M1122.64 0L1150 24.122V27.8091L1117.79 0H1122.64Z" fill="white"/>
<path d="M1148.48 0L1150 1.33623V6.53409L1142.43 0H1148.48Z" fill="white"/>
<path d="M1134.82 0L1150 13.3479V16.5613L1130.87 0H1134.82Z" fill="white"/>
<path d="M1083.67 0L1150 58.3251V60.833L1079.72 0H1083.67Z" fill="white"/>
<path d="M1072.04 0L1150 68.7309V72.4472L1066.08 0H1072.04Z" fill="white"/>
<path d="M1075.27 16.4326C1075.74 16.0258 1076.67 16.1825 1077.37 16.7866L1077.38 16.7954L1150 80.4841V82.741L1075.7 18.2605C1075 17.6547 1074.82 16.8375 1075.27 16.4326Z" fill="white"/>
<path d="M1046.92 0L1150 90.8737V94.3585L1040.69 0H1046.92Z" fill="white"/>
<path d="M1111.03 0L1150 34.4463V39.5045L1104.12 0H1111.03Z" fill="white"/>
<path d="M845.57 66.4309L939.229 149L845.57 231.569C845.56 231.577 845.538 231.597 845.53 231.604C844.141 232.808 842.268 233.118 841.351 232.298C840.433 231.479 840.816 229.841 842.211 228.638L934.465 149L842.211 69.3613C840.816 68.1587 840.433 66.5208 841.351 65.7019C842.268 64.8812 844.141 65.1912 845.53 66.3956C845.538 66.4027 845.56 66.4222 845.57 66.4309Z" fill="white"/>
<path d="M931.771 9.45776L1090.06 149L931.771 288.542C931.765 288.548 931.741 288.569 931.733 288.576C930.34 289.777 928.467 290.087 927.548 289.268C926.63 288.449 927.017 286.808 928.408 285.609L1086.66 149L928.408 12.3918C927.017 11.1924 926.63 9.55107 927.548 8.73218C928.467 7.91339 930.34 8.22329 931.733 9.42434C931.741 9.43132 931.765 9.45236 931.771 9.45776Z" fill="white"/>
<path d="M946.505 36.2938C947.648 35.2686 949.986 35.6526 951.729 37.1531C951.746 37.1672 951.776 37.1937 951.79 37.2059L1078.27 149L951.79 260.794C951.776 260.807 951.746 260.833 951.729 260.847C949.986 262.348 947.648 262.732 946.505 261.706C945.365 260.68 945.847 258.632 947.591 257.132L1073.18 149L947.591 40.8686C945.847 39.3683 945.365 37.3202 946.505 36.2938Z" fill="white"/>
<path d="M1065.63 149L985.497 219.647C985.489 219.654 985.467 219.673 985.456 219.682C984.061 220.878 982.192 221.191 981.274 220.373C980.357 219.552 980.745 217.918 982.134 216.713L1060.57 149L982.134 81.287C980.745 80.0824 980.357 78.4483 981.274 77.6276C982.192 76.8088 984.061 77.1222 985.457 78.3179C985.467 78.3268 985.489 78.3461 985.497 78.3531L1065.63 149Z" fill="white"/>
<path d="M913.25 27.0763L1051.91 149L913.25 270.924C913.247 270.927 913.23 270.941 913.228 270.943C912.185 271.846 910.778 272.081 910.089 271.47C909.399 270.853 909.69 269.628 910.727 268.723L1049.05 149L910.727 29.2776C909.69 28.3725 909.399 27.1468 910.089 26.5305C910.778 25.9195 912.185 26.1537 913.228 27.057C913.23 27.0588 913.247 27.0729 913.25 27.0763Z" fill="white"/>
<path d="M872.674 104.03C873.136 103.623 874.073 103.778 874.768 104.384L874.776 104.391L925.644 149L874.776 193.609L874.767 193.616C874.073 194.221 873.136 194.376 872.674 193.97C872.216 193.566 872.406 192.746 873.1 192.147L922.82 149L873.1 105.853C872.406 105.254 872.216 104.433 872.674 104.03Z" fill="white"/>
<path d="M973.682 15.9134C974.144 15.5064 975.077 15.6651 975.775 16.2673L975.783 16.2744L1127.12 149L975.783 281.725L975.775 281.732C975.077 282.335 974.144 282.493 973.682 282.086C973.219 281.679 973.409 280.859 974.104 280.26L1125.36 149L974.104 17.7395C973.409 17.1407 973.219 16.3202 973.682 15.9134Z" fill="white"/>
<path d="M929.468 54.4599C930.384 53.639 932.254 53.9526 933.646 55.1536C933.655 55.1606 933.679 55.1817 933.687 55.1888L1040.1 149L933.687 242.811C933.679 242.818 933.654 242.839 933.646 242.846C932.254 244.047 930.384 244.361 929.468 243.54C928.551 242.719 928.935 241.081 930.328 239.88L1035.6 149L930.328 58.119C928.935 56.918 928.551 55.2803 929.468 54.4599Z" fill="white"/>
<path d="M880.54 52.8782L989.57 149L880.54 245.121C880.53 245.13 880.508 245.149 880.5 245.156C879.107 246.357 877.234 246.667 876.322 245.85C875.403 245.031 875.786 243.394 877.181 242.191L985.131 149L877.181 55.8085C875.786 54.6057 875.403 52.968 876.322 52.1491C877.234 51.3319 879.107 51.642 880.5 52.843C880.508 52.85 880.531 52.8695 880.54 52.8782Z" fill="white"/>
<path d="M951.825 149L928.784 169.259C928.78 169.263 928.766 169.275 928.762 169.279C927.72 170.181 926.315 170.42 925.625 169.803C924.936 169.193 925.221 167.965 926.265 167.062L947.133 149L926.265 130.938C925.221 130.035 924.936 128.807 925.625 128.196C926.315 127.58 927.72 127.819 928.762 128.721C928.766 128.725 928.78 128.737 928.784 128.74L951.825 149Z" fill="white"/>
<path d="M1002 149L937.732 205.506C937.728 205.51 937.716 205.52 937.712 205.524C936.67 206.432 935.265 206.665 934.579 206.052C933.884 205.439 934.171 204.21 935.213 203.308L997.959 149L935.213 94.6914C934.171 93.7897 933.885 92.5607 934.579 91.9478C935.265 91.3349 936.67 91.5673 937.712 92.4759C937.716 92.4796 937.728 92.49 937.732 92.4936L1002 149Z" fill="white"/>
<path d="M916.84 65.4762C917.756 64.6556 919.629 64.9656 921.022 66.1665C921.03 66.1736 921.054 66.1947 921.062 66.2017L1014.98 149L921.062 231.797C921.054 231.805 921.03 231.826 921.022 231.833C919.629 233.034 917.756 233.344 916.84 232.523C915.927 231.706 916.311 230.068 917.703 228.867L1010.22 149L917.703 69.132C916.311 67.931 915.927 66.2934 916.84 65.4762Z" fill="white"/>
</g>
<defs>
<linearGradient id="paint0_linear_157_1620" x1="624" y1="157.896" x2="912.918" y2="147.219" gradientUnits="userSpaceOnUse">
<stop stop-color="#FFF8EC"/>
<stop offset="1" stop-color="#FAC675"/>
</linearGradient>
<linearGradient id="paint1_linear_157_1620" x1="758.4" y1="157.896" x2="960.455" y2="151.059" gradientUnits="userSpaceOnUse">
<stop stop-color="#FFF8EC"/>
<stop offset="1" stop-color="#FAC675"/>
</linearGradient>
<linearGradient id="paint2_linear_157_1620" x1="401.586" y1="149.445" x2="117.494" y2="162.956" gradientUnits="userSpaceOnUse">
<stop stop-color="#FFF8EC"/>
<stop offset="1" stop-color="#FAC675"/>
</linearGradient>
</defs>
</svg>
