<svg width="163" height="54" viewBox="0 0 163 54" fill="none" xmlns="http://www.w3.org/2000/svg">
<path d="M160.829 39.4163C160.829 47.2212 154.438 53.6085 146.636 53.6085H14.1922C6.38731 53.6085 0 47.2179 0 39.4163V14.1922C0 6.38067 6.39063 0 14.1922 0H146.636C154.441 0 160.829 6.38399 160.829 14.1922V39.4163Z" fill="#4F4F4F"/>
<path d="M49.344 13.792C49.344 13.344 49.4347 12.952 49.616 12.616C49.7973 12.2747 50.0453 12.0107 50.36 11.824C50.68 11.6373 51.0347 11.544 51.424 11.544C51.808 11.544 52.1413 11.6267 52.424 11.792C52.7067 11.9573 52.9173 12.1653 53.056 12.416V11.616H53.792V16H53.056V15.184C52.912 15.44 52.696 15.6533 52.408 15.824C52.1253 15.9893 51.7947 16.072 51.416 16.072C51.0267 16.072 50.6747 15.976 50.36 15.784C50.0453 15.592 49.7973 15.3227 49.616 14.976C49.4347 14.6293 49.344 14.2347 49.344 13.792ZM53.056 13.8C53.056 13.4693 52.9893 13.1813 52.856 12.936C52.7227 12.6907 52.5413 12.504 52.312 12.376C52.088 12.2427 51.84 12.176 51.568 12.176C51.296 12.176 51.048 12.24 50.824 12.368C50.6 12.496 50.4213 12.6827 50.288 12.928C50.1547 13.1733 50.088 13.4613 50.088 13.792C50.088 14.128 50.1547 14.4213 50.288 14.672C50.4213 14.9173 50.6 15.1067 50.824 15.24C51.048 15.368 51.296 15.432 51.568 15.432C51.84 15.432 52.088 15.368 52.312 15.24C52.5413 15.1067 52.7227 14.9173 52.856 14.672C52.9893 14.4213 53.056 14.1307 53.056 13.8ZM57.1583 11.536C57.6916 11.536 58.1236 11.6987 58.4543 12.024C58.7849 12.344 58.9503 12.808 58.9503 13.416V16H58.2303V13.52C58.2303 13.0827 58.1209 12.7493 57.9023 12.52C57.6836 12.2853 57.3849 12.168 57.0063 12.168C56.6223 12.168 56.3156 12.288 56.0863 12.528C55.8623 12.768 55.7503 13.1173 55.7503 13.576V16H55.0223V11.616H55.7503V12.24C55.8943 12.016 56.0889 11.8427 56.3343 11.72C56.5849 11.5973 56.8596 11.536 57.1583 11.536ZM59.8674 13.792C59.8674 13.344 59.9581 12.952 60.1394 12.616C60.3208 12.2747 60.5688 12.0107 60.8834 11.824C61.2034 11.6373 61.5608 11.544 61.9554 11.544C62.2968 11.544 62.6141 11.624 62.9074 11.784C63.2008 11.9387 63.4248 12.144 63.5794 12.4V10.08H64.3154V16H63.5794V15.176C63.4354 15.4373 63.2221 15.6533 62.9394 15.824C62.6568 15.9893 62.3261 16.072 61.9474 16.072C61.5581 16.072 61.2034 15.976 60.8834 15.784C60.5688 15.592 60.3208 15.3227 60.1394 14.976C59.9581 14.6293 59.8674 14.2347 59.8674 13.792ZM63.5794 13.8C63.5794 13.4693 63.5128 13.1813 63.3794 12.936C63.2461 12.6907 63.0648 12.504 62.8354 12.376C62.6114 12.2427 62.3634 12.176 62.0914 12.176C61.8194 12.176 61.5714 12.24 61.3474 12.368C61.1234 12.496 60.9448 12.6827 60.8114 12.928C60.6781 13.1733 60.6114 13.4613 60.6114 13.792C60.6114 14.128 60.6781 14.4213 60.8114 14.672C60.9448 14.9173 61.1234 15.1067 61.3474 15.24C61.5714 15.368 61.8194 15.432 62.0914 15.432C62.3634 15.432 62.6114 15.368 62.8354 15.24C63.0648 15.1067 63.2461 14.9173 63.3794 14.672C63.5128 14.4213 63.5794 14.1307 63.5794 13.8ZM66.2737 12.328C66.4017 12.0773 66.583 11.8827 66.8177 11.744C67.0577 11.6053 67.3484 11.536 67.6897 11.536V12.288H67.4977C66.6817 12.288 66.2737 12.7307 66.2737 13.616V16H65.5457V11.616H66.2737V12.328ZM70.4421 16.072C70.0314 16.072 69.6581 15.9787 69.3221 15.792C68.9914 15.6053 68.7301 15.3413 68.5381 15C68.3514 14.6533 68.2581 14.2533 68.2581 13.8C68.2581 13.352 68.3541 12.9573 68.5461 12.616C68.7434 12.2693 69.0101 12.0053 69.3461 11.824C69.6821 11.6373 70.0581 11.544 70.4741 11.544C70.8901 11.544 71.2661 11.6373 71.6021 11.824C71.9381 12.0053 72.2021 12.2667 72.3941 12.608C72.5914 12.9493 72.6901 13.3467 72.6901 13.8C72.6901 14.2533 72.5887 14.6533 72.3861 15C72.1887 15.3413 71.9194 15.6053 71.5781 15.792C71.2367 15.9787 70.8581 16.072 70.4421 16.072ZM70.4421 15.432C70.7034 15.432 70.9487 15.3707 71.1781 15.248C71.4074 15.1253 71.5914 14.9413 71.7301 14.696C71.8741 14.4507 71.9461 14.152 71.9461 13.8C71.9461 13.448 71.8767 13.1493 71.7381 12.904C71.5994 12.6587 71.4181 12.4773 71.1941 12.36C70.9701 12.2373 70.7274 12.176 70.4661 12.176C70.1994 12.176 69.9541 12.2373 69.7301 12.36C69.5114 12.4773 69.3354 12.6587 69.2021 12.904C69.0687 13.1493 69.0021 13.448 69.0021 13.8C69.0021 14.1573 69.0661 14.4587 69.1941 14.704C69.3274 14.9493 69.5034 15.1333 69.7221 15.256C69.9407 15.3733 70.1807 15.432 70.4421 15.432ZM74.0233 10.904C73.8846 10.904 73.7673 10.856 73.6713 10.76C73.5753 10.664 73.5273 10.5467 73.5273 10.408C73.5273 10.2693 73.5753 10.152 73.6713 10.056C73.7673 9.96 73.8846 9.912 74.0233 9.912C74.1566 9.912 74.2686 9.96 74.3593 10.056C74.4553 10.152 74.5033 10.2693 74.5033 10.408C74.5033 10.5467 74.4553 10.664 74.3593 10.76C74.2686 10.856 74.1566 10.904 74.0233 10.904ZM74.3753 11.616V16H73.6473V11.616H74.3753ZM75.344 13.792C75.344 13.344 75.4347 12.952 75.616 12.616C75.7973 12.2747 76.0453 12.0107 76.36 11.824C76.68 11.6373 77.0373 11.544 77.432 11.544C77.7733 11.544 78.0907 11.624 78.384 11.784C78.6773 11.9387 78.9013 12.144 79.056 12.4V10.08H79.792V16H79.056V15.176C78.912 15.4373 78.6987 15.6533 78.416 15.824C78.1333 15.9893 77.8027 16.072 77.424 16.072C77.0347 16.072 76.68 15.976 76.36 15.784C76.0453 15.592 75.7973 15.3227 75.616 14.976C75.4347 14.6293 75.344 14.2347 75.344 13.792ZM79.056 13.8C79.056 13.4693 78.9893 13.1813 78.856 12.936C78.7227 12.6907 78.5413 12.504 78.312 12.376C78.088 12.2427 77.84 12.176 77.568 12.176C77.296 12.176 77.048 12.24 76.824 12.368C76.6 12.496 76.4213 12.6827 76.288 12.928C76.1547 13.1733 76.088 13.4613 76.088 13.792C76.088 14.128 76.1547 14.4213 76.288 14.672C76.4213 14.9173 76.6 15.1067 76.824 15.24C77.048 15.368 77.296 15.432 77.568 15.432C77.84 15.432 78.088 15.368 78.312 15.24C78.5413 15.1067 78.7227 14.9173 78.856 14.672C78.9893 14.4213 79.056 14.1307 79.056 13.8ZM82.8831 13.792C82.8831 13.344 82.9737 12.952 83.1551 12.616C83.3364 12.2747 83.5844 12.0107 83.8991 11.824C84.2191 11.6373 84.5737 11.544 84.9631 11.544C85.3471 11.544 85.6804 11.6267 85.9631 11.792C86.2457 11.9573 86.4564 12.1653 86.5951 12.416V11.616H87.3311V16H86.5951V15.184C86.4511 15.44 86.2351 15.6533 85.9471 15.824C85.6644 15.9893 85.3337 16.072 84.9551 16.072C84.5657 16.072 84.2137 15.976 83.8991 15.784C83.5844 15.592 83.3364 15.3227 83.1551 14.976C82.9737 14.6293 82.8831 14.2347 82.8831 13.792ZM86.5951 13.8C86.5951 13.4693 86.5284 13.1813 86.3951 12.936C86.2617 12.6907 86.0804 12.504 85.8511 12.376C85.6271 12.2427 85.3791 12.176 85.1071 12.176C84.8351 12.176 84.5871 12.24 84.3631 12.368C84.1391 12.496 83.9604 12.6827 83.8271 12.928C83.6937 13.1733 83.6271 13.4613 83.6271 13.792C83.6271 14.128 83.6937 14.4213 83.8271 14.672C83.9604 14.9173 84.1391 15.1067 84.3631 15.24C84.5871 15.368 84.8351 15.432 85.1071 15.432C85.3791 15.432 85.6271 15.368 85.8511 15.24C86.0804 15.1067 86.2617 14.9173 86.3951 14.672C86.5284 14.4213 86.5951 14.1307 86.5951 13.8ZM89.2893 12.424C89.4333 12.1733 89.6466 11.9653 89.9293 11.8C90.2173 11.6293 90.5506 11.544 90.9293 11.544C91.3186 11.544 91.6706 11.6373 91.9853 11.824C92.3053 12.0107 92.556 12.2747 92.7373 12.616C92.9186 12.952 93.0093 13.344 93.0093 13.792C93.0093 14.2347 92.9186 14.6293 92.7373 14.976C92.556 15.3227 92.3053 15.592 91.9853 15.784C91.6706 15.976 91.3186 16.072 90.9293 16.072C90.556 16.072 90.2253 15.9893 89.9373 15.824C89.6546 15.6533 89.4386 15.4427 89.2893 15.192V18.08H88.5613V11.616H89.2893V12.424ZM92.2653 13.792C92.2653 13.4613 92.1986 13.1733 92.0653 12.928C91.932 12.6827 91.7506 12.496 91.5213 12.368C91.2973 12.24 91.0493 12.176 90.7773 12.176C90.5106 12.176 90.2626 12.2427 90.0333 12.376C89.8093 12.504 89.628 12.6933 89.4893 12.944C89.356 13.1893 89.2893 13.4747 89.2893 13.8C89.2893 14.1307 89.356 14.4213 89.4893 14.672C89.628 14.9173 89.8093 15.1067 90.0333 15.24C90.2626 15.368 90.5106 15.432 90.7773 15.432C91.0493 15.432 91.2973 15.368 91.5213 15.24C91.7506 15.1067 91.932 14.9173 92.0653 14.672C92.1986 14.4213 92.2653 14.128 92.2653 13.792ZM94.6956 12.424C94.8396 12.1733 95.0529 11.9653 95.3356 11.8C95.6236 11.6293 95.9569 11.544 96.3356 11.544C96.7249 11.544 97.0769 11.6373 97.3916 11.824C97.7116 12.0107 97.9622 12.2747 98.1436 12.616C98.3249 12.952 98.4156 13.344 98.4156 13.792C98.4156 14.2347 98.3249 14.6293 98.1436 14.976C97.9622 15.3227 97.7116 15.592 97.3916 15.784C97.0769 15.976 96.7249 16.072 96.3356 16.072C95.9622 16.072 95.6316 15.9893 95.3436 15.824C95.0609 15.6533 94.8449 15.4427 94.6956 15.192V18.08H93.9676V11.616H94.6956V12.424ZM97.6716 13.792C97.6716 13.4613 97.6049 13.1733 97.4716 12.928C97.3382 12.6827 97.1569 12.496 96.9276 12.368C96.7036 12.24 96.4556 12.176 96.1836 12.176C95.9169 12.176 95.6689 12.2427 95.4396 12.376C95.2156 12.504 95.0342 12.6933 94.8956 12.944C94.7622 13.1893 94.6956 13.4747 94.6956 13.8C94.6956 14.1307 94.7622 14.4213 94.8956 14.672C95.0342 14.9173 95.2156 15.1067 95.4396 15.24C95.6689 15.368 95.9169 15.432 96.1836 15.432C96.4556 15.432 96.7036 15.368 96.9276 15.24C97.1569 15.1067 97.3382 14.9173 97.4716 14.672C97.6049 14.4213 97.6716 14.128 97.6716 13.792ZM103.419 16.072C103.008 16.072 102.635 15.9787 102.299 15.792C101.968 15.6053 101.707 15.3413 101.515 15C101.328 14.6533 101.235 14.2533 101.235 13.8C101.235 13.352 101.331 12.9573 101.523 12.616C101.72 12.2693 101.987 12.0053 102.323 11.824C102.659 11.6373 103.035 11.544 103.451 11.544C103.867 11.544 104.243 11.6373 104.579 11.824C104.915 12.0053 105.179 12.2667 105.371 12.608C105.568 12.9493 105.667 13.3467 105.667 13.8C105.667 14.2533 105.565 14.6533 105.363 15C105.165 15.3413 104.896 15.6053 104.555 15.792C104.213 15.9787 103.835 16.072 103.419 16.072ZM103.419 15.432C103.68 15.432 103.925 15.3707 104.155 15.248C104.384 15.1253 104.568 14.9413 104.707 14.696C104.851 14.4507 104.923 14.152 104.923 13.8C104.923 13.448 104.853 13.1493 104.715 12.904C104.576 12.6587 104.395 12.4773 104.171 12.36C103.947 12.2373 103.704 12.176 103.443 12.176C103.176 12.176 102.931 12.2373 102.707 12.36C102.488 12.4773 102.312 12.6587 102.179 12.904C102.045 13.1493 101.979 13.448 101.979 13.8C101.979 14.1573 102.043 14.4587 102.171 14.704C102.304 14.9493 102.48 15.1333 102.699 15.256C102.917 15.3733 103.157 15.432 103.419 15.432ZM108.76 11.536C109.293 11.536 109.725 11.6987 110.056 12.024C110.386 12.344 110.552 12.808 110.552 13.416V16H109.832V13.52C109.832 13.0827 109.722 12.7493 109.504 12.52C109.285 12.2853 108.986 12.168 108.608 12.168C108.224 12.168 107.917 12.288 107.688 12.528C107.464 12.768 107.352 13.1173 107.352 13.576V16H106.624V11.616H107.352V12.24C107.496 12.016 107.69 11.8427 107.936 11.72C108.186 11.5973 108.461 11.536 108.76 11.536Z" fill="white"/>
<path d="M62.2459 26.663C61.9366 26.0123 61.4886 25.511 60.9019 25.159C60.3153 24.7963 59.6326 24.615 58.8539 24.615C58.0753 24.615 57.3713 24.7963 56.7419 25.159C56.1233 25.511 55.6326 26.023 55.2699 26.695C54.9179 27.3563 54.7419 28.1243 54.7419 28.999C54.7419 29.8737 54.9179 30.6417 55.2699 31.303C55.6326 31.9643 56.1233 32.4763 56.7419 32.839C57.3713 33.191 58.0753 33.367 58.8539 33.367C59.9419 33.367 60.8379 33.0417 61.5419 32.391C62.2459 31.7403 62.6566 30.8603 62.7739 29.751H58.3259V28.567H64.3259V29.687C64.2406 30.6043 63.9526 31.447 63.4619 32.215C62.9713 32.9723 62.3259 33.575 61.5259 34.023C60.7259 34.4603 59.8353 34.679 58.8539 34.679C57.8193 34.679 56.8753 34.439 56.0219 33.959C55.1686 33.4683 54.4913 32.791 53.9899 31.927C53.4993 31.063 53.2539 30.087 53.2539 28.999C53.2539 27.911 53.4993 26.935 53.9899 26.071C54.4913 25.1963 55.1686 24.519 56.0219 24.039C56.8753 23.5483 57.8193 23.303 58.8539 23.303C60.0379 23.303 61.0833 23.5963 61.9899 24.183C62.9073 24.7697 63.5739 25.5963 63.9899 26.663H62.2459ZM70.075 34.727C69.2537 34.727 68.507 34.5403 67.835 34.167C67.1737 33.7937 66.651 33.2657 66.267 32.583C65.8937 31.8897 65.707 31.0897 65.707 30.183C65.707 29.287 65.899 28.4977 66.283 27.815C66.6777 27.1217 67.211 26.5937 67.883 26.231C68.555 25.8577 69.307 25.671 70.139 25.671C70.971 25.671 71.723 25.8577 72.395 26.231C73.067 26.5937 73.595 27.1163 73.979 27.799C74.3737 28.4817 74.571 29.2763 74.571 30.183C74.571 31.0897 74.3684 31.8897 73.963 32.583C73.5684 33.2657 73.0297 33.7937 72.347 34.167C71.6644 34.5403 70.907 34.727 70.075 34.727ZM70.075 33.447C70.5977 33.447 71.0884 33.3243 71.547 33.079C72.0057 32.8337 72.3737 32.4657 72.651 31.975C72.939 31.4843 73.083 30.887 73.083 30.183C73.083 29.479 72.9444 28.8817 72.667 28.391C72.3897 27.9003 72.027 27.5377 71.579 27.303C71.131 27.0577 70.6457 26.935 70.123 26.935C69.5897 26.935 69.099 27.0577 68.651 27.303C68.2137 27.5377 67.8617 27.9003 67.595 28.391C67.3284 28.8817 67.195 29.479 67.195 30.183C67.195 30.8977 67.323 31.5003 67.579 31.991C67.8457 32.4817 68.1977 32.8497 68.635 33.095C69.0724 33.3297 69.5524 33.447 70.075 33.447ZM80.3094 34.727C79.4881 34.727 78.7414 34.5403 78.0694 34.167C77.4081 33.7937 76.8854 33.2657 76.5014 32.583C76.1281 31.8897 75.9414 31.0897 75.9414 30.183C75.9414 29.287 76.1334 28.4977 76.5174 27.815C76.9121 27.1217 77.4454 26.5937 78.1174 26.231C78.7894 25.8577 79.5414 25.671 80.3734 25.671C81.2054 25.671 81.9574 25.8577 82.6294 26.231C83.3014 26.5937 83.8294 27.1163 84.2134 27.799C84.6081 28.4817 84.8054 29.2763 84.8054 30.183C84.8054 31.0897 84.6028 31.8897 84.1974 32.583C83.8028 33.2657 83.2641 33.7937 82.5814 34.167C81.8988 34.5403 81.1414 34.727 80.3094 34.727ZM80.3094 33.447C80.8321 33.447 81.3228 33.3243 81.7814 33.079C82.2401 32.8337 82.6081 32.4657 82.8854 31.975C83.1734 31.4843 83.3174 30.887 83.3174 30.183C83.3174 29.479 83.1788 28.8817 82.9014 28.391C82.6241 27.9003 82.2614 27.5377 81.8134 27.303C81.3654 27.0577 80.8801 26.935 80.3574 26.935C79.8241 26.935 79.3334 27.0577 78.8854 27.303C78.4481 27.5377 78.0961 27.9003 77.8294 28.391C77.5628 28.8817 77.4294 29.479 77.4294 30.183C77.4294 30.8977 77.5574 31.5003 77.8134 31.991C78.0801 32.4817 78.4321 32.8497 78.8694 33.095C79.3068 33.3297 79.7868 33.447 80.3094 33.447ZM90.3358 25.671C91.0931 25.671 91.7545 25.8363 92.3198 26.167C92.8958 26.4977 93.3225 26.9137 93.5998 27.415V25.815H95.0718V34.775C95.0718 35.575 94.9011 36.2843 94.5598 36.903C94.2185 37.5323 93.7278 38.023 93.0878 38.375C92.4585 38.727 91.7225 38.903 90.8798 38.903C89.7278 38.903 88.7678 38.631 87.9998 38.087C87.2318 37.543 86.7785 36.8017 86.6398 35.863H88.0798C88.2398 36.3963 88.5705 36.823 89.0718 37.143C89.5731 37.4737 90.1758 37.639 90.8798 37.639C91.6798 37.639 92.3305 37.3883 92.8318 36.887C93.3438 36.3857 93.5998 35.6817 93.5998 34.775V32.935C93.3118 33.447 92.8851 33.8737 92.3198 34.215C91.7545 34.5563 91.0931 34.727 90.3358 34.727C89.5571 34.727 88.8478 34.535 88.2078 34.151C87.5785 33.767 87.0825 33.2283 86.7198 32.535C86.3571 31.8417 86.1758 31.0523 86.1758 30.167C86.1758 29.271 86.3571 28.487 86.7198 27.815C87.0825 27.1323 87.5785 26.6043 88.2078 26.231C88.8478 25.8577 89.5571 25.671 90.3358 25.671ZM93.5998 30.183C93.5998 29.5217 93.4665 28.9457 93.1998 28.455C92.9331 27.9643 92.5705 27.591 92.1118 27.335C91.6638 27.0683 91.1678 26.935 90.6238 26.935C90.0798 26.935 89.5838 27.063 89.1358 27.319C88.6878 27.575 88.3305 27.9483 88.0638 28.439C87.7971 28.9297 87.6638 29.5057 87.6638 30.167C87.6638 30.839 87.7971 31.4257 88.0638 31.927C88.3305 32.4177 88.6878 32.7963 89.1358 33.063C89.5838 33.319 90.0798 33.447 90.6238 33.447C91.1678 33.447 91.6638 33.319 92.1118 33.063C92.5705 32.7963 92.9331 32.4177 93.1998 31.927C93.4665 31.4257 93.5998 30.8443 93.5998 30.183ZM98.9883 22.743V34.583H97.5323V22.743H98.9883ZM109.47 29.863C109.47 30.1403 109.454 30.4337 109.422 30.743H102.414C102.467 31.607 102.76 32.2843 103.294 32.775C103.838 33.255 104.494 33.495 105.262 33.495C105.891 33.495 106.414 33.351 106.83 33.063C107.256 32.7643 107.555 32.3697 107.726 31.879H109.294C109.059 32.7217 108.59 33.4097 107.886 33.943C107.182 34.4657 106.307 34.727 105.262 34.727C104.43 34.727 103.683 34.5403 103.022 34.167C102.371 33.7937 101.859 33.2657 101.486 32.583C101.112 31.8897 100.926 31.0897 100.926 30.183C100.926 29.2763 101.107 28.4817 101.47 27.799C101.832 27.1163 102.339 26.5937 102.99 26.231C103.651 25.8577 104.408 25.671 105.262 25.671C106.094 25.671 106.83 25.8523 107.47 26.215C108.11 26.5777 108.6 27.079 108.942 27.719C109.294 28.3483 109.47 29.063 109.47 29.863ZM107.966 29.559C107.966 29.0043 107.843 28.5297 107.598 28.135C107.352 27.7297 107.016 27.4257 106.59 27.223C106.174 27.0097 105.71 26.903 105.198 26.903C104.462 26.903 103.832 27.1377 103.31 27.607C102.798 28.0763 102.504 28.727 102.43 29.559H107.966ZM123.113 26.695C123.113 27.623 122.793 28.3963 122.153 29.015C121.524 29.623 120.559 29.927 119.257 29.927H117.113V34.583H115.657V23.431H119.257C120.516 23.431 121.471 23.735 122.121 24.343C122.783 24.951 123.113 25.735 123.113 26.695ZM119.257 28.727C120.068 28.727 120.665 28.551 121.049 28.199C121.433 27.847 121.625 27.3457 121.625 26.695C121.625 25.319 120.836 24.631 119.257 24.631H117.113V28.727H119.257ZM126.379 22.743V34.583H124.923V22.743H126.379ZM128.316 30.167C128.316 29.271 128.498 28.487 128.86 27.815C129.223 27.1323 129.719 26.6043 130.348 26.231C130.988 25.8577 131.698 25.671 132.476 25.671C133.244 25.671 133.911 25.8363 134.476 26.167C135.042 26.4977 135.463 26.9137 135.74 27.415V25.815H137.212V34.583H135.74V32.951C135.452 33.463 135.02 33.8897 134.444 34.231C133.879 34.5617 133.218 34.727 132.46 34.727C131.682 34.727 130.978 34.535 130.348 34.151C129.719 33.767 129.223 33.2283 128.86 32.535C128.498 31.8417 128.316 31.0523 128.316 30.167ZM135.74 30.183C135.74 29.5217 135.607 28.9457 135.34 28.455C135.074 27.9643 134.711 27.591 134.252 27.335C133.804 27.0683 133.308 26.935 132.764 26.935C132.22 26.935 131.724 27.063 131.276 27.319C130.828 27.575 130.471 27.9483 130.204 28.439C129.938 28.9297 129.804 29.5057 129.804 30.167C129.804 30.839 129.938 31.4257 130.204 31.927C130.471 32.4177 130.828 32.7963 131.276 33.063C131.724 33.319 132.22 33.447 132.764 33.447C133.308 33.447 133.804 33.319 134.252 33.063C134.711 32.7963 135.074 32.4177 135.34 31.927C135.607 31.4257 135.74 30.8443 135.74 30.183ZM147.225 25.815L141.945 38.711H140.441L142.169 34.487L138.633 25.815H140.249L143.001 32.919L145.721 25.815H147.225Z" fill="white"/>
<path d="M9.06299 44.0529V9.55664L40.0701 26.3218L9.06299 44.0529Z" fill="#5CA9B3"/>
<path d="M9.06299 9.55664L31.0069 31.5039L40.0701 26.3218L9.06299 9.55664Z" fill="#C8DB9B"/>
<path d="M30.8244 21.3191L9.06299 44.0532L40.0701 26.3221L30.8244 21.3191Z" fill="#AC5067"/>
<path d="M31.0077 31.5043L40.0708 26.3221L30.8251 21.3191L25.9351 26.4316L31.0077 31.5043Z" fill="#F4A676"/>
</svg>
